# Blender v2.79 (sub 0) OBJ File: 'olc_building0.blend'
# www.blender.org
mtllib olc_building0.mtl
o Plane
v 0.000000 0.000000 0.000000
v 0.000000 -1.000000 0.000000
v -1.000000 0.000000 0.000000
v -1.000000 -1.000000 0.000000
v -0.025000 -0.412671 -0.052133
v -0.025000 -0.587329 -0.052133
v -0.975000 -0.025000 -0.050000
v -0.975000 -0.975000 -0.050000
v -1.000000 0.000000 -0.050000
v 0.000000 0.000000 -0.050000
v 0.000000 -1.000000 -0.050000
v -1.000000 -1.000000 -0.050000
v -0.975000 -0.025000 -0.517611
v -0.975000 -0.975000 -0.517611
v -1.000000 0.000000 -0.527316
v 0.000000 0.000000 -0.527316
v 0.000000 -1.000000 -0.527316
v -1.000000 -1.000000 -0.527316
v -0.975000 -0.025000 -0.550000
v -0.025000 -0.025000 -0.550000
v -0.025000 -0.975000 -0.550000
v -0.975000 -0.975000 -0.550000
v -0.025000 -0.601364 -0.402078
v -0.025000 -0.601364 -0.044706
v -0.025000 -0.398636 -0.044706
v -0.025000 -0.398636 -0.402078
v -0.374620 -0.412671 -0.045097
v -0.374620 -0.587329 -0.047815
v -0.374620 -0.587329 -0.388044
v -0.374620 -0.412671 -0.388044
v -0.005099 -0.601364 -0.402078
v -0.005099 -0.601364 -0.044706
v -0.005099 -0.398636 -0.044706
v -0.005099 -0.398636 -0.402078
v -0.005099 -0.587329 -0.388044
v -0.005099 -0.587329 -0.047815
v -0.005099 -0.412671 -0.045097
v -0.005099 -0.412671 -0.388044
v -0.017305 -0.419472 -0.044438
v -0.017305 -0.594130 -0.044438
v -0.025000 -0.975000 -0.517611
v -0.025000 -0.975000 -0.050000
v -0.025000 -0.601364 -0.402078
v -0.025000 -0.601364 -0.044706
v -0.025000 -0.025000 -0.050000
v -0.025000 -0.025000 -0.517611
v -0.025000 -0.398636 -0.044706
v -0.025000 -0.398636 -0.402078
v -0.925000 -0.075000 -1.550000
v -0.075000 -0.075000 -1.550000
v -0.075000 -0.925000 -1.550000
v -0.925000 -0.925000 -1.550000
v -0.975000 -0.025000 -1.550000
v -0.025000 -0.025000 -1.550000
v -0.025000 -0.975000 -1.550000
v -0.975000 -0.975000 -1.550000
v -0.975000 -0.025000 -1.600000
v -0.025000 -0.025000 -1.600000
v -0.025000 -0.975000 -1.600000
v -0.975000 -0.975000 -1.600000
v -0.925000 -0.075000 -1.600000
v -0.075000 -0.075000 -1.600000
v -0.075000 -0.925000 -1.600000
v -0.925000 -0.925000 -1.600000
v 0.160449 -0.127295 -1.107365
v 0.160449 -0.127295 -1.287365
v -0.026426 -0.127295 -1.107365
v -0.026426 -0.127295 -1.287365
v 0.160449 -0.427295 -1.107365
v 0.160449 -0.427295 -1.287365
v -0.026426 -0.427295 -1.107365
v -0.026426 -0.427295 -1.287365
v -0.026426 -0.127295 -1.287365
v -0.026426 -0.127295 -1.107365
v 0.160449 -0.127295 -1.287365
v 0.160449 -0.127295 -1.107365
v 0.160449 -0.427295 -1.287365
v 0.160449 -0.427295 -1.107365
v 0.160449 -0.127295 -1.287365
v 0.160449 -0.127295 -1.107365
v -0.026426 -0.427295 -1.287365
v -0.026426 -0.427295 -1.107365
v 0.160449 -0.427295 -1.287365
v 0.160449 -0.427295 -1.107365
v -0.157753 -0.144986 -1.539514
v -0.157753 -0.144986 -1.637282
v -0.240677 -0.144986 -1.539514
v -0.240677 -0.144986 -1.637282
v -0.157753 -0.328413 -1.539514
v -0.157753 -0.328413 -1.637282
v -0.240677 -0.328413 -1.539514
v -0.240677 -0.328413 -1.637282
v -0.480538 -0.445573 -1.455033
v -0.480538 -0.445573 -1.817243
v -0.732419 -0.445573 -1.455033
v -0.732419 -0.445573 -1.817243
v -0.480538 -0.823959 -1.455033
v -0.480538 -0.823959 -1.685969
v -0.732419 -0.823959 -1.455033
v -0.732419 -0.823959 -1.685969
v -0.157753 -0.144986 -1.539514
v -0.157753 -0.144986 -1.637282
v -0.240677 -0.144986 -1.539514
v -0.240677 -0.144986 -1.637282
v -0.157753 -0.328413 -1.539514
v -0.157753 -0.328413 -1.637282
v -0.240677 -0.328413 -1.539514
v -0.240677 -0.328413 -1.637282
v -0.026426 -0.585532 -1.287365
v -0.026426 -0.585532 -1.107365
v 0.160449 -0.585532 -1.287365
v 0.160449 -0.585532 -1.107365
v 0.160449 -0.885532 -1.287365
v 0.160449 -0.885532 -1.107365
v 0.160449 -0.585532 -1.287365
v 0.160449 -0.585532 -1.107365
v -0.026426 -0.885532 -1.287365
v -0.026426 -0.885532 -1.107365
v 0.160449 -0.885532 -1.287365
v 0.160449 -0.885532 -1.107365
v 0.160449 -0.586497 -0.622366
v 0.160449 -0.586497 -0.802366
v -0.026426 -0.586497 -0.622366
v -0.026426 -0.586497 -0.802366
v 0.160449 -0.886497 -0.802366
v 0.160449 -0.886497 -0.622366
v 0.160449 -0.586497 -0.802366
v 0.160449 -0.586497 -0.622366
v -0.026426 -0.886497 -0.802366
v -0.026426 -0.886497 -0.622366
v 0.160449 -0.886497 -0.802366
v 0.160449 -0.886497 -0.622366
v 0.160449 -0.126028 -0.622366
v 0.160449 -0.126028 -0.802366
v -0.026426 -0.126028 -0.622366
v -0.026426 -0.126028 -0.802366
v 0.160449 -0.426028 -0.802366
v 0.160449 -0.426028 -0.622366
v 0.160449 -0.126028 -0.802366
v 0.160449 -0.126028 -0.622366
v -0.026426 -0.426028 -0.802366
v -0.026426 -0.426028 -0.622366
v 0.160449 -0.426028 -0.802366
v 0.160449 -0.426028 -0.622366
v -0.026426 -0.585532 -1.287365
v -0.026426 -0.585532 -1.107365
v 0.160449 -0.585532 -1.287365
v 0.160449 -0.585532 -1.107365
v 0.160449 -0.885532 -1.287365
v 0.160449 -0.885532 -1.107365
v 0.160449 -0.585532 -1.287365
v 0.160449 -0.585532 -1.107365
v -0.026426 -0.885532 -1.287365
v -0.026426 -0.885532 -1.107365
v 0.160449 -0.885532 -1.287365
v 0.160449 -0.885532 -1.107365
v 0.160449 -0.586497 -0.622366
v 0.160449 -0.586497 -0.802366
v -0.026426 -0.586497 -0.622366
v -0.026426 -0.586497 -0.802366
v 0.160449 -0.886497 -0.802366
v 0.160449 -0.886497 -0.622366
v 0.160449 -0.586497 -0.802366
v 0.160449 -0.586497 -0.622366
v -0.026426 -0.886497 -0.802366
v -0.026426 -0.886497 -0.622366
v 0.160449 -0.886497 -0.802366
v 0.160449 -0.886497 -0.622366
v 0.160449 -0.126028 -0.622366
v 0.160449 -0.126028 -0.802366
v -0.026426 -0.126028 -0.622366
v -0.026426 -0.126028 -0.802366
v 0.160449 -0.426028 -0.802366
v 0.160449 -0.426028 -0.622366
v 0.160449 -0.126028 -0.802366
v 0.160449 -0.126028 -0.622366
v -0.026426 -0.426028 -0.802366
v -0.026426 -0.426028 -0.622366
v 0.160449 -0.426028 -0.802366
v 0.160449 -0.426028 -0.622366
v 0.160449 -0.584850 -1.107365
v -0.026426 -0.584850 -1.107365
v 0.160449 -0.884850 -1.107365
v -0.026426 -0.884850 -1.107365
v 0.160449 -0.127295 -0.622373
v -0.026426 -0.127295 -0.622373
v 0.160449 -0.427295 -0.622373
v -0.026426 -0.427295 -0.622373
v 0.160449 -0.584850 -0.622373
v -0.026426 -0.584850 -0.622373
v 0.160449 -0.884850 -0.622373
v -0.026426 -0.884850 -0.622373
vt 0.014847 0.403582
vt 0.153703 0.694145
vt 0.014847 0.694145
vt 0.034115 0.694145
vt 0.048963 1.000000
vt 0.034115 1.000000
vt 0.047359 0.372997
vt 0.032511 0.067142
vt 0.047358 0.067142
vt 0.048963 0.694145
vt 0.063810 1.000000
vt 0.048963 1.000000
vt 0.019268 0.694145
vt 0.034115 1.000000
vt 0.019268 1.000000
vt 0.710478 0.701791
vt 1.000000 0.694145
vt 0.992576 0.701791
vt 1.000000 1.000000
vt 0.992576 0.992353
vt 0.703054 1.000000
vt 0.710478 0.992354
vt 0.703054 0.694145
vt 1.000000 0.051849
vt 0.717901 0.357704
vt 0.717901 0.051849
vt 0.047359 0.082435
vt 0.186214 0.372997
vt 0.047359 0.372997
vt 0.186214 0.082435
vt 0.325069 0.372997
vt 0.186214 0.372997
vt 1.000000 1.000000
vt 1.000000 1.000000
vt 1.000000 1.000000
vt 0.703054 0.694145
vt 0.413541 0.701796
vt 0.406108 0.694145
vt 0.703054 1.000000
vt 0.695640 0.701796
vt 0.406108 1.000000
vt 0.695640 0.992358
vt 0.413541 0.992358
vt 0.004421 0.885721
vt 0.002849 0.709438
vt 0.004421 0.823716
vt 0.118100 0.779467
vt 0.115894 0.721754
vt 0.118100 0.726047
vt 1.000000 1.000000
vt 1.000000 1.000000
vt 0.119844 0.783760
vt 0.124009 0.890693
vt 0.124009 0.890693
vt 0.509125 0.003716
vt 0.515034 0.113020
vt 0.509125 0.113020
vt 0.616064 0.113020
vt 0.717901 0.000000
vt 0.717901 0.113020
vt 1.000000 1.000000
vt 1.000000 1.000000
vt 0.119842 0.995708
vt 0.124009 0.890696
vt 0.124009 1.000000
vt 0.067977 0.995708
vt 0.063810 0.890696
vt 0.067977 0.890815
vt 0.063810 1.000000
vt 0.515034 0.113020
vt 0.616064 0.000000
vt 0.616064 0.113020
vt 0.118100 0.721754
vt 0.124009 0.783760
vt 0.118100 0.783760
vt 0.509125 0.113020
vt 0.503215 0.003716
vt 0.509125 0.003716
vt 0.115815 0.777387
vt 0.115815 0.723967
vt 0.431190 0.196713
vt 0.465497 0.082435
vt 0.465497 0.372997
vt 0.465497 0.113020
vt 0.717901 0.372997
vt 0.465497 0.372997
vt 0.717901 0.372997
vt 0.435802 0.678852
vt 0.435802 0.372997
vt 1.000000 0.372997
vt 0.717901 0.678852
vt 0.717901 0.372997
vt 0.435802 0.372997
vt 0.153703 0.678852
vt 0.153703 0.372997
vt 0.717901 0.678852
vt 0.435802 0.694145
vt 0.017664 0.372997
vt 0.002817 0.113020
vt 0.017664 0.113020
vt 1.000000 0.357704
vt 0.717901 0.372997
vt 0.032511 0.372997
vt 0.017664 0.372997
vt 0.138856 0.724730
vt 0.406108 0.709437
vt 0.391260 0.724730
vt 0.406108 1.000000
vt 0.391260 0.984707
vt 0.124009 1.000000
vt 0.138856 0.984707
vt 0.124009 0.709438
vt 0.014847 0.694145
vt 0.000000 0.434168
vt 0.014847 0.434168
vt 1.000000 0.678852
vt 0.717901 0.694145
vt 0.435802 0.678852
vt 0.153703 0.694145
vt 0.004421 0.740023
vt 0.019268 1.000000
vt 0.004421 1.000000
vt 0.316450 0.067652
vt 0.252222 0.005787
vt 0.316449 0.005787
vt 0.483784 0.067652
vt 0.419557 0.005787
vt 0.483784 0.005787
vt 0.419557 0.067652
vt 0.248111 0.067096
vt 0.165675 0.015745
vt 0.248111 0.015745
vt 0.252222 0.005787
vt 0.316450 0.067652
vt 0.316449 0.005787
vt 0.316449 0.005787
vt 0.419557 0.067652
vt 0.419557 0.005787
vt 0.419557 0.005787
vt 0.483784 0.067652
vt 0.483784 0.005787
vt 0.000000 0.000000
vt 0.000000 0.000000
vt 0.000000 0.000000
vt 0.000000 0.000000
vt 0.000000 0.000000
vt 0.000000 0.000000
vt 0.000000 0.000000
vt 0.000000 0.000000
vt 0.525322 0.836366
vt 0.586878 0.919862
vt 0.525322 0.919862
vt 0.552285 0.749140
vt 0.608723 0.836366
vt 0.552285 0.836366
vt 0.586878 0.894429
vt 0.643316 0.836366
vt 0.643316 0.894429
vt 0.520203 0.749140
vt 0.463765 0.836366
vt 0.463765 0.749140
vt 0.463765 0.836366
vt 0.525322 0.928691
vt 0.463765 0.928691
vt 0.892836 0.808021
vt 0.844939 0.752099
vt 0.892836 0.752099
vt 0.884262 0.808021
vt 0.827791 0.912939
vt 0.827791 0.808021
vt 0.940733 0.808021
vt 0.892836 0.752099
vt 0.940733 0.752099
vt 0.884262 0.912939
vt 0.940733 0.808021
vt 0.940733 0.912939
vt 0.779894 0.808021
vt 0.827791 0.912939
vt 0.779894 0.912939
vt 0.252222 0.005787
vt 0.316450 0.067652
vt 0.316449 0.005787
vt 0.316449 0.005787
vt 0.419557 0.067652
vt 0.419557 0.005787
vt 0.419557 0.005787
vt 0.483784 0.067652
vt 0.483784 0.005787
vt 0.252222 0.005787
vt 0.316450 0.067652
vt 0.316449 0.005787
vt 0.316449 0.005787
vt 0.419557 0.067652
vt 0.419557 0.005787
vt 0.419557 0.005787
vt 0.483784 0.067652
vt 0.483784 0.005787
vt 0.252222 0.005787
vt 0.316450 0.067652
vt 0.316449 0.005787
vt 0.316449 0.005787
vt 0.419557 0.067652
vt 0.419557 0.005787
vt 0.419557 0.005787
vt 0.483784 0.067652
vt 0.483784 0.005787
vt 0.316450 0.067652
vt 0.252222 0.005787
vt 0.316449 0.005787
vt 0.419557 0.067652
vt 0.316449 0.005787
vt 0.419557 0.005787
vt 0.483784 0.067652
vt 0.419557 0.005787
vt 0.483784 0.005787
vt 0.316450 0.067652
vt 0.252222 0.005787
vt 0.316449 0.005787
vt 0.419557 0.067652
vt 0.316449 0.005787
vt 0.419557 0.005787
vt 0.483784 0.067652
vt 0.419557 0.005787
vt 0.483784 0.005787
vt 0.316450 0.067652
vt 0.252222 0.005787
vt 0.316449 0.005787
vt 0.419557 0.067652
vt 0.316449 0.005787
vt 0.419557 0.005787
vt 0.483784 0.067652
vt 0.419557 0.005787
vt 0.483784 0.005787
vt 0.248111 0.067096
vt 0.165675 0.015745
vt 0.248111 0.015745
vt 0.248111 0.067096
vt 0.165675 0.015745
vt 0.248111 0.015745
vt 0.248111 0.067096
vt 0.165675 0.015745
vt 0.248111 0.015745
vt 0.153703 0.403582
vt 0.048963 0.694145
vt 0.032511 0.372997
vt 0.063810 0.694145
vt 0.034115 0.694145
vt 0.186214 0.082435
vt 0.325069 0.082435
vt 0.002849 1.000000
vt 0.115894 0.783760
vt 1.000000 1.000000
vt 0.119840 0.890696
vt 0.067976 0.890695
vt 0.067979 0.783760
vt 0.063810 0.890691
vt 0.063810 0.890691
vt 0.515034 0.003716
vt 0.616064 0.000000
vt 0.119842 0.891647
vt 0.515034 0.000000
vt 0.124009 0.721754
vt 0.503215 0.113020
vt 0.326641 0.372997
vt 0.431190 0.258718
vt 0.325069 0.258718
vt 0.325069 0.196713
vt 0.326641 0.082435
vt 0.717901 0.113020
vt 0.717901 0.694145
vt 0.002817 0.372997
vt 1.000000 0.372997
vt 0.032511 0.113020
vt 0.000000 0.694145
vt 1.000000 0.694145
vt 0.435802 0.694145
vt 0.019268 0.740023
vt 0.252222 0.067652
vt 0.165675 0.067096
vt 0.252222 0.067652
vt 0.316450 0.067652
vt 0.419557 0.067652
vt 0.586878 0.836366
vt 0.640804 0.749140
vt 0.586878 0.836366
vt 0.552285 0.836366
vt 0.844939 0.808021
vt 0.884262 0.912939
vt 0.892836 0.808021
vt 0.884262 0.808021
vt 0.827791 0.808021
vt 0.252222 0.067652
vt 0.316450 0.067652
vt 0.419557 0.067652
vt 0.252222 0.067652
vt 0.316450 0.067652
vt 0.419557 0.067652
vt 0.252222 0.067652
vt 0.316450 0.067652
vt 0.419557 0.067652
vt 0.252222 0.067652
vt 0.316450 0.067652
vt 0.419557 0.067652
vt 0.252222 0.067652
vt 0.316450 0.067652
vt 0.419557 0.067652
vt 0.252222 0.067652
vt 0.316450 0.067652
vt 0.419557 0.067652
vt 0.165675 0.067096
vt 0.165675 0.067096
vt 0.165675 0.067096
vn 0.0000 -1.0000 0.0000
vn -1.0000 0.0000 0.0000
vn 1.0000 0.0000 0.0000
vn 0.0000 1.0000 0.0000
vn 0.0000 0.0000 -1.0000
vn 0.0000 0.0000 1.0000
vn 0.0000 0.6720 -0.7406
vn 0.6720 0.0000 -0.7406
vn 0.0000 -0.6720 -0.7406
vn -0.6720 0.0000 -0.7406
vn 0.7071 0.0000 -0.7071
vn 0.0000 -0.3278 -0.9448
vn -0.0178 0.4677 -0.8837
vn -0.0123 0.0000 -0.9999
vn -0.0201 0.0156 -0.9997
vn -0.0109 -0.4677 -0.8838
usemtl Material.001
s off
f 8/1/1 41/2/1 42/3/1
f 3/4/2 12/5/2 4/6/2
f 2/7/3 10/8/3 1/9/3
f 4/10/1 11/11/1 2/12/1
f 1/13/4 9/14/4 3/15/4
f 7/16/5 10/17/5 45/18/5
f 45/18/5 11/19/5 42/20/5
f 42/20/5 12/21/5 8/22/5
f 8/22/5 9/23/5 7/16/5
f 22/24/1 55/25/1 21/26/1
f 45/27/4 13/28/4 7/29/4
f 7/30/2 14/31/2 8/32/2
f 43/33/6 26/34/6 23/35/6
f 16/36/7 19/37/7 15/38/7
f 17/39/8 20/40/8 16/36/8
f 18/41/9 21/42/9 17/39/9
f 15/38/10 22/43/10 18/41/10
f 47/44/2 42/45/2 44/46/2
f 5/47/3 44/48/3 6/49/3
f 48/50/6 25/51/6 26/34/6
f 27/52/6 25/53/6 47/54/6
f 25/55/4 34/56/4 26/57/4
f 30/58/1 37/59/1 27/60/1
f 44/61/6 23/35/6 24/62/6
f 35/63/3 32/64/3 31/65/3
f 38/66/3 33/67/3 37/68/3
f 35/63/3 34/69/3 38/66/3
f 28/70/4 35/71/4 29/72/4
f 26/73/5 31/74/5 23/75/5
f 23/76/1 32/77/1 24/78/1
f 6/49/11 39/79/11 40/80/11
f 43/81/3 41/82/3 46/83/3
f 51/84/5 49/85/5 50/86/5
f 20/87/4 53/88/4 19/89/4
f 19/90/2 56/91/2 22/92/2
f 21/93/3 54/94/3 20/95/3
f 54/96/4 57/97/4 53/88/4
f 52/98/3 61/99/3 49/100/3
f 56/101/1 59/102/1 55/25/1
f 49/100/1 62/103/1 50/104/1
f 61/105/5 58/106/5 62/107/5
f 62/107/5 59/108/5 63/109/5
f 63/109/5 60/110/5 64/111/5
f 64/111/5 57/112/5 61/105/5
f 50/113/2 63/114/2 51/115/2
f 53/116/2 60/117/2 56/91/2
f 55/118/3 58/119/3 54/94/3
f 51/120/4 64/121/4 52/122/4
f 66/123/4 67/124/4 65/125/4
f 72/126/1 69/127/1 71/128/1
f 70/129/3 65/125/3 69/127/3
f 65/130/5 71/131/5 67/132/5
f 74/133/1 75/134/1 76/135/1
f 80/136/2 77/137/2 78/138/2
f 84/139/4 81/140/4 82/141/4
f 86/142/4 87/143/4 85/144/4
f 88/145/2 91/146/2 87/143/2
f 92/147/1 89/148/1 91/146/1
f 90/149/3 85/144/3 89/148/3
f 88/145/5 90/149/5 92/147/5
f 94/150/4 95/151/4 93/152/4
f 95/153/2 100/154/2 99/155/2
f 100/156/1 97/157/1 99/158/1
f 98/159/3 93/160/3 97/161/3
f 96/162/12 98/163/12 100/164/12
f 102/165/4 103/166/4 101/167/4
f 104/168/2 107/169/2 103/170/2
f 108/171/1 105/172/1 107/173/1
f 106/174/3 101/175/3 105/176/3
f 104/177/5 106/178/5 108/179/5
f 110/180/1 111/181/1 112/182/1
f 116/183/2 113/184/2 114/185/2
f 120/186/4 117/187/4 118/188/4
f 123/189/1 122/190/1 121/191/1
f 128/192/2 125/193/2 126/194/2
f 132/195/4 129/196/4 130/197/4
f 135/198/1 134/199/1 133/200/1
f 140/201/2 137/202/2 138/203/2
f 144/204/4 141/205/4 142/206/4
f 147/207/4 146/208/4 148/209/4
f 149/210/3 152/211/3 150/212/3
f 153/213/1 156/214/1 154/215/1
f 158/216/4 159/217/4 157/218/4
f 161/219/3 164/220/3 162/221/3
f 165/222/1 168/223/1 166/224/1
f 170/225/4 171/226/4 169/227/4
f 173/228/3 176/229/3 174/230/3
f 177/231/1 180/232/1 178/233/1
f 181/234/5 184/235/5 182/236/5
f 185/237/5 188/238/5 186/239/5
f 189/240/5 192/241/5 190/242/5
f 8/1/1 14/243/1 41/2/1
f 3/4/2 9/244/2 12/5/2
f 2/7/3 11/245/3 10/8/3
f 4/10/1 12/246/1 11/11/1
f 1/13/4 10/247/4 9/14/4
f 7/16/5 9/23/5 10/17/5
f 45/18/5 10/17/5 11/19/5
f 42/20/5 11/19/5 12/21/5
f 8/22/5 12/21/5 9/23/5
f 22/24/1 56/101/1 55/25/1
f 45/27/4 46/248/4 13/28/4
f 7/30/2 13/249/2 14/31/2
f 43/33/6 48/50/6 26/34/6
f 16/36/7 20/40/7 19/37/7
f 17/39/8 21/42/8 20/40/8
f 18/41/9 22/43/9 21/42/9
f 15/38/10 19/37/10 22/43/10
f 47/44/2 45/250/2 42/45/2
f 5/47/3 47/251/3 44/48/3
f 48/50/6 47/252/6 25/51/6
f 47/54/13 5/253/13 27/52/13
f 5/253/14 6/254/14 28/255/14
f 44/256/6 24/257/6 28/255/6
f 5/253/15 28/255/15 27/52/15
f 6/254/16 44/256/16 28/255/16
f 25/55/4 33/258/4 34/56/4
f 30/58/1 38/259/1 37/59/1
f 44/61/6 43/33/6 23/35/6
f 35/63/3 36/260/3 32/64/3
f 38/66/3 34/69/3 33/67/3
f 35/63/3 31/65/3 34/69/3
f 28/70/4 36/261/4 35/71/4
f 26/73/5 34/262/5 31/74/5
f 23/76/1 31/263/1 32/77/1
f 6/49/11 5/47/11 39/79/11
f 46/83/3 45/264/3 48/265/3
f 45/264/3 47/266/3 48/265/3
f 44/267/3 42/268/3 43/81/3
f 42/268/3 41/82/3 43/81/3
f 46/83/3 48/265/3 43/81/3
f 51/84/5 52/269/5 49/85/5
f 20/87/4 54/96/4 53/88/4
f 19/90/2 53/116/2 56/91/2
f 21/93/3 55/118/3 54/94/3
f 54/96/4 58/270/4 57/97/4
f 52/98/3 64/271/3 61/99/3
f 56/101/1 60/272/1 59/102/1
f 49/100/1 61/273/1 62/103/1
f 61/105/5 57/112/5 58/106/5
f 62/107/5 58/106/5 59/108/5
f 63/109/5 59/108/5 60/110/5
f 64/111/5 60/110/5 57/112/5
f 50/113/2 62/274/2 63/114/2
f 53/116/2 57/275/2 60/117/2
f 55/118/3 59/276/3 58/119/3
f 51/120/4 63/277/4 64/121/4
f 66/123/4 68/278/4 67/124/4
f 72/126/1 70/129/1 69/127/1
f 70/129/3 66/123/3 65/125/3
f 65/130/5 69/279/5 71/131/5
f 74/133/1 73/280/1 75/134/1
f 80/136/2 79/281/2 77/137/2
f 84/139/4 83/282/4 81/140/4
f 86/142/4 88/145/4 87/143/4
f 88/145/2 92/147/2 91/146/2
f 92/147/1 90/149/1 89/148/1
f 90/149/3 86/142/3 85/144/3
f 88/145/5 86/142/5 90/149/5
f 94/150/4 96/283/4 95/151/4
f 95/153/2 96/284/2 100/154/2
f 100/156/1 98/285/1 97/157/1
f 98/159/3 94/286/3 93/160/3
f 96/162/12 94/150/12 98/163/12
f 102/165/4 104/287/4 103/166/4
f 104/168/2 108/288/2 107/169/2
f 108/171/1 106/289/1 105/172/1
f 106/174/3 102/290/3 101/175/3
f 104/177/5 102/291/5 106/178/5
f 110/180/1 109/292/1 111/181/1
f 116/183/2 115/293/2 113/184/2
f 120/186/4 119/294/4 117/187/4
f 123/189/1 124/295/1 122/190/1
f 128/192/2 127/296/2 125/193/2
f 132/195/4 131/297/4 129/196/4
f 135/198/1 136/298/1 134/199/1
f 140/201/2 139/299/2 137/202/2
f 144/204/4 143/300/4 141/205/4
f 147/207/4 145/301/4 146/208/4
f 149/210/3 151/302/3 152/211/3
f 153/213/1 155/303/1 156/214/1
f 158/216/4 160/304/4 159/217/4
f 161/219/3 163/305/3 164/220/3
f 165/222/1 167/306/1 168/223/1
f 170/225/4 172/307/4 171/226/4
f 173/228/3 175/308/3 176/229/3
f 177/231/1 179/309/1 180/232/1
f 181/234/5 183/310/5 184/235/5
f 185/237/5 187/311/5 188/238/5
f 189/240/5 191/312/5 192/241/5
