# Blender v2.79 (sub 0) OBJ File: 'unit_building.blend'
# www.blender.org
v 1.0000 1.000 -0.000
v 1.0000 1.0 -0.50
v 0.0000 1.00 -0.000
v 0.0000 1.000 -0.5
v 1.0 0.00 0.000
v 1.0 0.00000 -0.5
v -0.000081 0.004528 0.004407
v -0.000081 0.000101 -0.495573
vn 0.0002 1.0000 -0.0089
vn -1.0000 0.0002 -0.0000
vn -0.0002 -1.0000 0.0089
vn 1.0000 -0.0002 0.0000
vn -0.0000 -0.0089 -1.0000
s off
f 2//1 3//1 1//1
f 4//2 7//2 3//2
f 8//3 5//3 7//3
f 6//4 1//4 5//4
f 4//5 6//5 8//5
f 2//1 4//1 3//1
f 4//2 8//2 7//2
f 8//3 6//3 5//3
f 6//4 2//4 1//4
f 4//5 2//5 6//5
